<svg width="100" height="100" viewBox="0 0 100 100" fill="none" xmlns="http://www.w3.org/2000/svg">
<rect width="100" height="100" rx="18" fill="black"/>
<path d="M84.4331 42.6528L89.9877 52.3374L60.7376 69.3546C60.7376 69.3546 42.8347 80.2626 29.9573 57.7604L39.0646 52.4614C39.0646 52.4614 44.9803 65.6428 55.2404 59.6576C65.5005 53.6725 84.4331 42.6528 84.4331 42.6528Z" fill="white"/>
<path d="M16.5547 57.7066L11 48.0221L40.8737 30.6618C40.8737 30.6618 58.7848 19.7538 71.6622 42.2353L62.5508 47.5219C62.5508 47.5219 56.6351 34.3405 46.375 40.3257C36.1149 46.3108 16.5547 57.7066 16.5547 57.7066Z" fill="white"/>
<path d="M51.064 57.471C52.5087 57.4718 53.921 57.0409 55.1225 56.2328C56.324 55.4246 57.2606 54.2756 57.8138 52.931C58.367 51.5865 58.5119 50.1068 58.2303 48.6792C57.9487 47.2516 57.2531 45.9403 56.2316 44.9111C55.2102 43.8818 53.9086 43.181 52.4917 42.8973C51.0749 42.6135 49.6063 42.7596 48.2718 43.317C46.9373 43.8743 45.7969 44.818 44.9948 46.0286C44.1927 47.2391 43.7651 48.6622 43.7659 50.1177C43.767 52.0676 44.5362 53.9373 45.9047 55.3161C47.2731 56.6948 49.1288 57.4699 51.064 57.471Z" fill="#FF931E"/>
<path d="M25.2928 68.9495C26.0464 68.9487 26.7828 68.7228 27.409 68.3004C28.0352 67.8779 28.5231 67.2779 28.8109 66.5762C29.0987 65.8745 29.1736 65.1025 29.0261 64.3579C28.8786 63.6133 28.5153 62.9295 27.9821 62.3929C27.4489 61.8563 26.7699 61.491 26.0307 61.3431C25.2915 61.1953 24.5254 61.2716 23.8293 61.5623C23.1331 61.8531 22.5381 62.3453 22.1195 62.9767C21.701 63.608 21.4775 64.3503 21.4775 65.1096C21.477 65.6143 21.5753 66.1143 21.7669 66.5807C21.9585 67.047 22.2396 67.4708 22.594 67.8275C22.9485 68.1842 23.3693 68.467 23.8324 68.6595C24.2955 68.852 24.7918 68.9506 25.2928 68.9495V68.9495Z" fill="white"/>
<path d="M76.1708 39.3502C76.9255 39.351 77.6635 39.1263 78.2915 38.7044C78.9195 38.2825 79.4091 37.6824 79.6985 36.9801C79.9879 36.2778 80.064 35.5047 79.9173 34.7588C79.7705 34.0128 79.4075 33.3275 78.8741 32.7895C78.3407 32.2515 77.6609 31.8849 76.9207 31.7363C76.1805 31.5876 75.4132 31.6635 74.7158 31.9543C74.0184 32.2452 73.4223 32.7379 73.0029 33.3701C72.5835 34.0023 72.3596 34.7457 72.3596 35.5062C72.3591 36.0108 72.4573 36.5106 72.6485 36.9769C72.8398 37.4433 73.1205 37.8671 73.4744 38.2241C73.8284 38.5811 74.2487 38.8643 74.7113 39.0575C75.174 39.2508 75.6699 39.3502 76.1708 39.3502Z" fill="white"/>
</svg>
